<svg width="1200" height="760" viewBox="0 0 1200 760" fill="none" xmlns="http://www.w3.org/2000/svg">
  <rect width="1200" height="760" rx="32" fill="#091017"/>
  <rect x="24" y="24" width="1152" height="712" rx="24" fill="#0E1621" stroke="#243042"/>
  <rect x="56" y="56" width="180" height="648" rx="20" fill="#0A1119" stroke="#1B2635"/>
  <rect x="268" y="56" width="876" height="72" rx="20" fill="#101A28" stroke="#233145"/>
  <rect x="268" y="160" width="274" height="160" rx="20" fill="#111D2C" stroke="#233145"/>
  <rect x="560" y="160" width="274" height="160" rx="20" fill="#111D2C" stroke="#233145"/>
  <rect x="852" y="160" width="292" height="160" rx="20" fill="#111D2C" stroke="#233145"/>
  <rect x="268" y="352" width="548" height="320" rx="20" fill="#101A28" stroke="#233145"/>
  <rect x="834" y="352" width="310" height="320" rx="20" fill="#101A28" stroke="#233145"/>
  <rect x="76" y="88" width="140" height="18" rx="9" fill="#19D3C5" fill-opacity="0.16"/>
  <rect x="76" y="136" width="120" height="14" rx="7" fill="#D7E2F0" fill-opacity="0.14"/>
  <rect x="76" y="184" width="132" height="44" rx="14" fill="#142333" stroke="#27435D"/>
  <rect x="88" y="198" width="18" height="18" rx="6" fill="#37E6D5"/>
  <rect x="116" y="200" width="76" height="14" rx="7" fill="#E7F2FF" fill-opacity="0.72"/>
  <rect x="76" y="240" width="132" height="44" rx="14" fill="#0D1621"/>
  <rect x="88" y="254" width="18" height="18" rx="6" fill="#F4B544"/>
  <rect x="116" y="256" width="64" height="14" rx="7" fill="#E7F2FF" fill-opacity="0.32"/>
  <rect x="76" y="296" width="132" height="44" rx="14" fill="#0D1621"/>
  <rect x="88" y="310" width="18" height="18" rx="6" fill="#6B8BFF"/>
  <rect x="116" y="312" width="54" height="14" rx="7" fill="#E7F2FF" fill-opacity="0.32"/>
  <rect x="296" y="84" width="220" height="16" rx="8" fill="#E7F2FF" fill-opacity="0.8"/>
  <rect x="1002" y="82" width="114" height="24" rx="12" fill="#163C38"/>
  <circle cx="1020" cy="94" r="5" fill="#37E6D5"/>
  <rect x="1032" y="88" width="64" height="12" rx="6" fill="#D9FFF8" fill-opacity="0.75"/>
  <rect x="296" y="188" width="106" height="14" rx="7" fill="#B6C9E0" fill-opacity="0.52"/>
  <rect x="296" y="218" width="82" height="48" rx="16" fill="#0D1621"/>
  <rect x="390" y="222" width="124" height="10" rx="5" fill="#E7F2FF" fill-opacity="0.18"/>
  <rect x="390" y="244" width="92" height="10" rx="5" fill="#19D3C5" fill-opacity="0.55"/>
  <rect x="588" y="188" width="112" height="14" rx="7" fill="#B6C9E0" fill-opacity="0.52"/>
  <path d="M590 274C630 236 668 226 700 234C730 242 754 266 784 260C800 258 813 250 822 242" stroke="#37E6D5" stroke-width="6" stroke-linecap="round"/>
  <circle cx="590" cy="274" r="8" fill="#37E6D5"/>
  <circle cx="666" cy="239" r="8" fill="#37E6D5"/>
  <circle cx="742" cy="258" r="8" fill="#37E6D5"/>
  <circle cx="822" cy="242" r="8" fill="#37E6D5"/>
  <rect x="880" y="188" width="142" height="14" rx="7" fill="#B6C9E0" fill-opacity="0.52"/>
  <rect x="880" y="220" width="236" height="20" rx="10" fill="#0D1621"/>
  <rect x="892" y="226" width="76" height="8" rx="4" fill="#37E6D5"/>
  <rect x="880" y="252" width="236" height="20" rx="10" fill="#0D1621"/>
  <rect x="892" y="258" width="124" height="8" rx="4" fill="#F4B544"/>
  <rect x="296" y="382" width="172" height="12" rx="6" fill="#B6C9E0" fill-opacity="0.52"/>
  <rect x="296" y="416" width="492" height="48" rx="16" fill="#0D1621"/>
  <rect x="312" y="432" width="88" height="16" rx="8" fill="#19D3C5" fill-opacity="0.18"/>
  <rect x="416" y="432" width="132" height="16" rx="8" fill="#E7F2FF" fill-opacity="0.64"/>
  <rect x="652" y="430" width="104" height="20" rx="10" fill="#163C38"/>
  <rect x="296" y="478" width="492" height="48" rx="16" fill="#0D1621"/>
  <rect x="312" y="494" width="74" height="16" rx="8" fill="#6B8BFF" fill-opacity="0.18"/>
  <rect x="402" y="494" width="148" height="16" rx="8" fill="#E7F2FF" fill-opacity="0.48"/>
  <rect x="678" y="492" width="78" height="20" rx="10" fill="#402D12"/>
  <rect x="296" y="540" width="492" height="48" rx="16" fill="#0D1621"/>
  <rect x="312" y="556" width="96" height="16" rx="8" fill="#19D3C5" fill-opacity="0.18"/>
  <rect x="424" y="556" width="170" height="16" rx="8" fill="#E7F2FF" fill-opacity="0.48"/>
  <rect x="834" y="382" width="132" height="12" rx="6" fill="#B6C9E0" fill-opacity="0.52"/>
  <rect x="858" y="424" width="14" height="14" rx="7" fill="#37E6D5"/>
  <rect x="886" y="424" width="148" height="10" rx="5" fill="#E7F2FF" fill-opacity="0.72"/>
  <rect x="1048" y="424" width="60" height="10" rx="5" fill="#E7F2FF" fill-opacity="0.22"/>
  <rect x="858" y="470" width="14" height="14" rx="7" fill="#F4B544"/>
  <rect x="886" y="470" width="136" height="10" rx="5" fill="#E7F2FF" fill-opacity="0.72"/>
  <rect x="1036" y="470" width="72" height="10" rx="5" fill="#E7F2FF" fill-opacity="0.22"/>
  <rect x="858" y="516" width="14" height="14" rx="7" fill="#FF7C89"/>
  <rect x="886" y="516" width="126" height="10" rx="5" fill="#E7F2FF" fill-opacity="0.72"/>
  <rect x="1026" y="516" width="82" height="10" rx="5" fill="#E7F2FF" fill-opacity="0.22"/>
</svg>
